<?xml version="1.0" encoding="UTF-8" standalone="no"?>
<!-- Created with Inkscape (http://www.inkscape.org/) -->

<svg
   xmlns:dc="http://purl.org/dc/elements/1.1/"
   xmlns:cc="http://creativecommons.org/ns#"
   xmlns:rdf="http://www.w3.org/1999/02/22-rdf-syntax-ns#"
   xmlns:svg="http://www.w3.org/2000/svg"
   xmlns="http://www.w3.org/2000/svg"
   xmlns:sodipodi="http://sodipodi.sourceforge.net/DTD/sodipodi-0.dtd"
   xmlns:inkscape="http://www.inkscape.org/namespaces/inkscape"
   width="65mm"
   height="30mm"
   viewBox="0 0 65 30"
   version="1.1"
   id="svg8"
   inkscape:version="0.92.3 (2405546, 2018-03-11)"
   sodipodi:docname="ELT-logo.svg"
   inkscape:export-filename="C:\Users\bozar\Desktop\ELT.png"
   inkscape:export-xdpi="146.56"
   inkscape:export-ydpi="146.56">
  <defs
     id="defs2">
    <inkscape:path-effect
       effect="envelope"
       id="path-effect4797"
       is_visible="true"
       yy="true"
       xx="true"
       bendpath1="M 75.836798,39.611392 H 104.4409"
       bendpath2="m 104.4409,39.611392 -3.175,11.734799"
       bendpath3="M 72.661798,51.346191 H 101.2659"
       bendpath4="m 75.836798,39.611392 -3.175,11.734799"
       bendpath1-nodetypes="cc"
       bendpath4-nodetypes="cc"
       bendpath2-nodetypes="cc" />
  </defs>
  <sodipodi:namedview
     id="base"
     pagecolor="#ffffff"
     bordercolor="#666666"
     borderopacity="1.0"
     inkscape:pageopacity="0.0"
     inkscape:pageshadow="2"
     inkscape:zoom="5.6568542"
     inkscape:cx="82.991651"
     inkscape:cy="56.680805"
     inkscape:document-units="mm"
     inkscape:current-layer="layer1"
     showgrid="true"
     inkscape:window-width="1366"
     inkscape:window-height="715"
     inkscape:window-x="-8"
     inkscape:window-y="-8"
     inkscape:window-maximized="1">
    <inkscape:grid
       type="xygrid"
       id="grid4518" />
  </sodipodi:namedview>
  <metadata
     id="metadata5">
    <rdf:RDF>
      <cc:Work
         rdf:about="">
        <dc:format>image/svg+xml</dc:format>
        <dc:type
           rdf:resource="http://purl.org/dc/dcmitype/StillImage" />
        <dc:title></dc:title>
      </cc:Work>
    </rdf:RDF>
  </metadata>
  <g
     inkscape:label="Layer 1"
     inkscape:groupmode="layer"
     id="layer1"
     transform="translate(0,-267)">
    <path
       inkscape:export-ydpi="146.56"
       inkscape:export-xdpi="146.56"
       sodipodi:nodetypes="csccssscc"
       inkscape:connector-curvature="0"
       id="path4799"
       d="m 14.947088,268.80232 c -7.2888803,0 -13.197683,5.90879 -13.197683,13.19768 0,7.28888 5.9088027,13.19769 13.197683,13.19769 4.146986,-0.006 8.049844,-1.96148 10.538038,-5.27908 h 29.846861 c 4.373326,0 7.918608,-3.54528 7.918608,-7.91861 0,-4.37332 -3.545282,-7.91862 -7.918608,-7.91862 H 25.489246 c -2.489061,-3.31875 -6.393716,-5.27404 -10.542158,-5.27906 z"
       style="fill:#ffffff;fill-opacity:1;stroke:none;stroke-width:0.49880993;stroke-miterlimit:4;stroke-dasharray:none" />
    <path
       id="path4746"
       d="m 14.947088,268.80232 c -7.2888803,0 -13.197683,5.90879 -13.197683,13.19768 0,7.28888 5.9088027,13.19769 13.197683,13.19769 4.146986,-0.006 8.049844,-1.96148 10.538038,-5.27908 H 52.692455 V 274.08138 H 25.489246 c -2.489061,-3.31875 -6.393716,-5.27404 -10.542158,-5.27906 z"
       style="fill:#008000;fill-opacity:1;stroke:none;stroke-width:0.49880993;stroke-miterlimit:4;stroke-dasharray:none"
       inkscape:connector-curvature="0"
       sodipodi:nodetypes="cscccccc"
       inkscape:export-xdpi="146.56"
       inkscape:export-ydpi="146.56" />
    <path
       style="fill:none;fill-opacity:1;stroke:#000000;stroke-width:0.49880993;stroke-miterlimit:4;stroke-dasharray:none"
       d="m 14.947088,268.80232 c -7.2888803,0 -13.197683,5.90879 -13.197683,13.19768 0,7.28888 5.9088027,13.19769 13.197683,13.19769 4.146986,-0.006 8.049844,-1.96148 10.538038,-5.27908 h 29.846861 c 4.373326,0 7.918608,-3.54528 7.918608,-7.91861 0,-4.37332 -3.545282,-7.91862 -7.918608,-7.91862 H 25.489246 c -2.489061,-3.31875 -6.393716,-5.27404 -10.542158,-5.27906 z"
       id="path4526"
       inkscape:connector-curvature="0"
       sodipodi:nodetypes="csccssscc"
       inkscape:export-xdpi="146.56"
       inkscape:export-ydpi="146.56" />
    <g
       style="fill:#008000;stroke:#008000"
       id="g4722"
       inkscape:label="Layer 1"
       transform="matrix(0.04428282,-0.02605391,0.02605391,0.04428282,-24.466449,266.45283)"
       inkscape:export-xdpi="146.56"
       inkscape:export-ydpi="146.56">
      <rect
         id="rect4694"
         style="fill:#008000;stroke:#008000"
         rx="8"
         ry="8"
         height="31.466"
         width="62.578999"
         y="499.10999"
         x="355.54001" />
      <rect
         id="rect4696"
         style="fill:#008000;stroke:#008000"
         rx="8"
         ry="8"
         height="31.466"
         width="62.578999"
         y="499.10999"
         x="533.69" />
      <path
         id="path4698"
         style="fill:#008000;stroke:#008000"
         inkscape:connector-curvature="0"
         d="m 367.08,506.56 c -6.0318,0 -11.471,2.4074 -15.438,6.3125 -0.0409,0.0402 -0.0844,0.0844 -0.125,0.125 -4.2921,3.3087 -7.5968,7.8163 -9.1562,13.438 l -25.031,90.25 c -4.7392,17.083 0.48564,36.232 17.312,41.812 l 26.656,8.8125 c 16.827,5.5802 34.179,-1.2971 41.781,-17.312 l 21.031,-44.281 h 106.06 l 21.031,44.281 c 7.6018,16.015 24.954,22.893 41.781,17.312 l 26.656,-8.8125 c 16.827,-5.5802 22.052,-24.73 17.312,-41.812 l -25.031,-90.25 c -2.7742,-9.9998 -11.014,-16.522 -20.656,-18.875 -0.13603,-0.0421 -0.26909,-0.0854 -0.40625,-0.125 -0.01,-0.002 -0.0213,0.002 -0.0312,0 -1.9407,-0.55685 -4.0006,-0.875 -6.125,-0.875 h -1.8125 -211.5 -4.3125 z" />
      <g
         style="fill:#008000;stroke:#008000"
         id="g4720" />
    </g>
    <g
       transform="matrix(0.04385343,-0.02580128,0.02580128,0.04385343,-23.580922,266.58467)"
       inkscape:label="Layer 1"
       id="layer1-7"
       style="stroke:#000000"
       inkscape:export-xdpi="146.56"
       inkscape:export-ydpi="146.56">
      <rect
         x="355.54001"
         y="499.10999"
         width="62.578999"
         height="31.466"
         ry="8"
         rx="8"
         style="fill:#000000;stroke:#000000"
         id="rect4249" />
      <rect
         x="533.69"
         y="499.10999"
         width="62.578999"
         height="31.466"
         ry="8"
         rx="8"
         style="fill:#000000;stroke:#000000"
         id="rect4267" />
      <path
         d="m 367.08,506.56 c -6.0318,0 -11.471,2.4074 -15.438,6.3125 -0.0409,0.0402 -0.0844,0.0844 -0.125,0.125 -4.2921,3.3087 -7.5968,7.8163 -9.1562,13.438 l -25.031,90.25 c -4.7392,17.083 0.48564,36.232 17.312,41.812 l 26.656,8.8125 c 16.827,5.5802 34.179,-1.2971 41.781,-17.312 l 21.031,-44.281 h 106.06 l 21.031,44.281 c 7.6018,16.015 24.954,22.893 41.781,17.312 l 26.656,-8.8125 c 16.827,-5.5802 22.052,-24.73 17.312,-41.812 l -25.031,-90.25 c -2.7742,-9.9998 -11.014,-16.522 -20.656,-18.875 -0.13603,-0.0421 -0.26909,-0.0854 -0.40625,-0.125 -0.01,-0.002 -0.0213,0.002 -0.0312,0 -1.9407,-0.55685 -4.0006,-0.875 -6.125,-0.875 h -1.8125 -211.5 -4.3125 z"
         inkscape:connector-curvature="0"
         style="fill:#000000;stroke:#000000"
         id="rect4151" />
      <g
         id="g3897"
         style="stroke:#000000">
        <path
           inkscape:connector-curvature="0"
           style="fill:#008000;fill-rule:evenodd;stroke:#000000"
           d="m 582.63,539.71 a 15,15 0 0 1 -30,0 15,15 0 1 1 30,0 z"
           id="path3244" />
        <path
           inkscape:connector-curvature="0"
           style="fill:#008000;fill-rule:evenodd;stroke:#000000"
           d="m 582.63,591.13 a 15,15 0 0 1 -30,0 15,15 0 1 1 30,0 z"
           id="path3246" />
        <path
           inkscape:connector-curvature="0"
           style="fill:#008000;fill-rule:evenodd;stroke:#000000"
           d="m 578.35,565.47 a 15,15 0 1 1 30,0 15,15 0 0 1 -30,0 z"
           id="path3248" />
        <path
           inkscape:connector-curvature="0"
           style="fill:#008000;fill-rule:evenodd;stroke:#000000"
           d="m 526.93,565.47 a 15,15 0 1 1 30,0 15,15 0 0 1 -30,0 z"
           id="path3250" />
        <path
           d="m 403.99,551.7 a 2.6354,2.6354 0 0 0 -1.8862,1.0479 l -7.8241,9.9198 a 2.6354,2.6354 0 0 0 0,3.2135 l 7.8241,9.9896 a 2.6354,2.6354 0 0 0 2.0957,1.0479 l 18.163,0.0698 a 2.6354,2.6354 0 0 0 2.6546,-2.6545 v -19.63 a 2.6354,2.6354 0 0 0 -2.5847,-2.6546 l -18.163,-0.34927 a 2.6354,2.6354 0 0 0 -0.27944,0 z"
           inkscape:connector-curvature="0"
           style="fill:#008000;fill-rule:evenodd;stroke:#000000"
           id="path3322" />
        <path
           d="m 366.97,551.5 a 2.6354,2.6354 0 0 1 1.8862,1.0479 l 7.824,9.9198 a 2.6354,2.6354 0 0 1 0,3.2135 l -7.824,9.9896 a 2.6354,2.6354 0 0 1 -2.0957,1.0479 l -18.163,0.0698 a 2.6354,2.6354 0 0 1 -2.6546,-2.6545 v -19.63 a 2.6354,2.6354 0 0 1 2.5847,-2.6546 l 18.163,-0.34927 a 2.6354,2.6354 0 0 1 0.27944,0 z"
           inkscape:connector-curvature="0"
           style="fill:#008000;fill-rule:evenodd;stroke:#000000"
           id="path3324" />
        <path
           d="m 398.02,582.75 a 2.6354,2.6354 0 0 0 -1.0479,-1.8862 l -9.9198,-7.8241 a 2.6354,2.6354 0 0 0 -3.2135,0 l -9.9896,7.8241 a 2.6354,2.6354 0 0 0 -1.0479,2.0957 l -0.0698,18.163 a 2.6354,2.6354 0 0 0 2.6545,2.6546 h 19.63 a 2.6354,2.6354 0 0 0 2.6546,-2.5847 l 0.34927,-18.163 a 2.6354,2.6354 0 0 0 0,-0.27943 z"
           inkscape:connector-curvature="0"
           style="fill:#008000;fill-rule:evenodd;stroke:#000000"
           id="path3332" />
        <path
           d="m 398.23,545.73 a 2.6354,2.6354 0 0 1 -1.0479,1.8862 l -9.9198,7.8241 a 2.6354,2.6354 0 0 1 -3.2135,0 l -9.9897,-7.8241 a 2.6354,2.6354 0 0 1 -1.0479,-2.0957 l -0.0698,-18.163 a 2.6354,2.6354 0 0 1 2.6545,-2.6546 h 19.63 a 2.6354,2.6354 0 0 1 2.6546,2.5848 l 0.34929,18.163 a 2.6354,2.6354 0 0 1 0,0.27942 z"
           inkscape:connector-curvature="0"
           style="fill:#008000;fill-rule:evenodd;stroke:#000000"
           id="path3334" />
        <path
           d="m 507.13,552.5 c 0.69726,0.0598 1.3623,0.42912 1.7813,0.98963 l 7.3892,9.3685 c 0.66325,0.86235 0.66325,2.1725 0,3.0349 l -7.3892,9.4344 c -0.46045,0.61012 -1.2149,0.98735 -1.9793,0.98964 l -21.376,0.0658 c -1.3153,0.0105 -2.5166,-1.1917 -2.5071,-2.507 v -18.539 c -0.0105,-1.2934 1.1478,-2.4822 2.4411,-2.5071 l 21.376,-0.32987 c 0.0878,-0.005 0.17607,-0.005 0.26391,0 z"
           inkscape:connector-curvature="0"
           style="fill:#008000;fill-rule:evenodd;stroke:#000000;stroke-width:9.82693958;stroke-miterlimit:4;stroke-dasharray:none"
           id="path4289" />
        <path
           d="m 447.44,552.31 c -0.69726,0.0598 -1.3623,0.42912 -1.7813,0.98964 l -7.3892,9.3685 c -0.66325,0.86235 -0.66325,2.1725 0,3.0349 l 7.3892,9.4344 c 0.46045,0.61012 1.2149,0.98735 1.9793,0.98964 l 21.376,0.0658 c 1.3153,0.0105 2.5166,-1.1917 2.5071,-2.507 v -18.539 c 0.0105,-1.2934 -1.1479,-2.4822 -2.4411,-2.5071 l -21.376,-0.32987 c -0.0877,-0.005 -0.17607,-0.005 -0.2639,0 z"
           inkscape:connector-curvature="0"
           style="fill:#008000;fill-rule:evenodd;stroke:#000000;stroke-width:9.82693958;stroke-miterlimit:4;stroke-dasharray:none"
           id="path4291" />
      </g>
    </g>
    <g
       id="g5436">
      <path
         style="color:#000000;font-style:normal;font-variant:normal;font-weight:normal;font-stretch:normal;font-size:medium;line-height:normal;font-family:sans-serif;text-indent:0;text-align:start;text-decoration:none;text-decoration-line:none;text-decoration-style:solid;text-decoration-color:#000000;letter-spacing:normal;word-spacing:normal;text-transform:none;writing-mode:lr-tb;direction:ltr;baseline-shift:baseline;text-anchor:start;white-space:normal;clip-rule:nonzero;display:inline;overflow:visible;visibility:visible;opacity:1;isolation:auto;mix-blend-mode:normal;color-interpolation:sRGB;color-interpolation-filters:linearRGB;solid-color:#000000;solid-opacity:1;fill:#008000;fill-opacity:1;fill-rule:evenodd;stroke:none;stroke-width:4.06334352;stroke-linecap:round;stroke-linejoin:round;stroke-miterlimit:4;stroke-dasharray:none;stroke-dashoffset:0;stroke-opacity:1;color-rendering:auto;image-rendering:auto;shape-rendering:auto;text-rendering:auto;enable-background:accumulate"
         d="m 19.283406,278.82129 c -0.07491,0.005 -0.148944,0.0179 -0.220507,0.0402 l -5.045689,1.53883 c -0.464545,0.14193 -0.735887,0.6241 -0.616481,1.09544 l 0.588026,5.29704 c 0.02722,0.24096 0.149236,0.46113 0.339072,0.61173 l 3.732097,2.96861 c 0.01613,0.014 0.03277,0.0274 0.04978,0.0402 0.02368,0.0186 0.04822,0.036 0.07343,0.0522 0.02535,0.0163 0.05147,0.0312 0.0783,0.045 0.02549,0.0131 0.05171,0.025 0.0783,0.0355 l 0.01894,0.007 c 0.01869,0.007 0.03776,0.0132 0.05693,0.0188 0.01725,0.005 0.03459,0.009 0.05221,0.0143 l 0.01215,0.002 h 0.005 c 0.02038,0.005 0.04094,0.008 0.06167,0.0121 l 0.05923,0.007 h 0.0142 c 0.01806,9.3e-4 0.03632,0.002 0.05451,0.002 0.02535,-5.8e-4 0.05065,-0.002 0.07587,-0.005 0.03021,-0.002 0.06036,-0.006 0.09008,-0.0121 0.03034,-0.006 0.06042,-0.0128 0.09008,-0.0214 0.08547,-0.0242 0.166986,-0.061 0.241858,-0.10903 l 4.692387,-2.63427 c 0.269047,-0.15141 0.443109,-0.42902 0.462366,-0.73742 l 0.343799,-5.67165 c 0.01384,-0.23593 -0.06435,-0.46803 -0.218129,-0.6473 -0.0062,-0.007 -0.01252,-0.0143 -0.01893,-0.0214 -0.03496,-0.0379 -0.07296,-0.0728 -0.113755,-0.10434 -0.0073,-0.006 -0.0142,-0.0108 -0.02137,-0.0165 l -0.0142,-0.009 c -0.01994,-0.015 -0.04056,-0.0293 -0.06167,-0.0426 -0.01781,-0.009 -0.03608,-0.0195 -0.05451,-0.0285 -0.0084,-0.005 -0.01737,-0.008 -0.02609,-0.0121 -0.0187,-0.009 -0.03763,-0.018 -0.05693,-0.0261 l -0.0073,-0.002 c -0.01252,-0.005 -0.02524,-0.008 -0.03787,-0.0121 l -4.398377,-1.62181 c -0.114484,-0.0421 -0.236246,-0.0605 -0.358036,-0.0546 z"
         id="path4684"
         inkscape:connector-curvature="0"
         sodipodi:nodetypes="ccccccccccccccccccccccccccccccccccccccccc" />
      <g
         style="fill:#000000"
         inkscape:label="Layer 1"
         id="layer1-8"
         transform="matrix(0.0906596,0,0,0.0906596,28.908878,272.93246)">
        <path
           style="color:#000000;font-style:normal;font-variant:normal;font-weight:normal;font-stretch:normal;font-size:medium;line-height:normal;font-family:sans-serif;text-indent:0;text-align:start;text-decoration:none;text-decoration-line:none;text-decoration-style:solid;text-decoration-color:#000000;letter-spacing:normal;word-spacing:normal;text-transform:none;writing-mode:lr-tb;direction:ltr;baseline-shift:baseline;text-anchor:start;white-space:normal;clip-rule:nonzero;display:inline;overflow:visible;visibility:visible;opacity:1;isolation:auto;mix-blend-mode:normal;color-interpolation:sRGB;color-interpolation-filters:linearRGB;solid-color:#000000;solid-opacity:1;fill:#000000;fill-opacity:1;fill-rule:evenodd;stroke:none;stroke-width:42.69927216;stroke-linecap:round;stroke-linejoin:round;stroke-miterlimit:4;stroke-dasharray:none;stroke-dashoffset:0;stroke-opacity:1;color-rendering:auto;image-rendering:auto;shape-rendering:auto;text-rendering:auto;enable-background:accumulate"
           d="m -106.30767,68.016807 c -0.78711,0.0523 -1.56517,0.18787 -2.31719,0.42354 l -53.02216,16.17069 c -4.88163,1.49153 -7.73299,6.55835 -6.47823,11.51142 l 6.17921,55.663303 c 0.28607,2.53218 1.56825,4.84585 3.56312,6.4285 l 39.2184,31.19527 c 0.16955,0.14664 0.34434,0.28803 0.52304,0.42355 0.24876,0.19506 0.50668,0.37901 0.77179,0.54855 0.26643,0.17087 0.54071,0.32928 0.82284,0.4733 0.26774,0.13812 0.54333,0.26184 0.82286,0.37378 l 0.199,0.0766 c 0.19639,0.0766 0.39669,0.13878 0.59831,0.199 0.18133,0.0523 0.36331,0.10208 0.54857,0.14926 l 0.12766,0.0262 h 0.0523 c 0.21406,0.0523 0.43008,0.089 0.64807,0.12765 l 0.62253,0.0766 h 0.14925 c 0.18983,0.0131 0.38164,0.0263 0.57278,0.0263 0.26643,-0.006 0.53221,-0.0263 0.79733,-0.0523 0.31748,-0.0263 0.63431,-0.0655 0.94656,-0.12766 0.3188,-0.0655 0.63498,-0.1342 0.94657,-0.22452 0.89813,-0.25531 1.75476,-0.64152 2.54154,-1.14558 L -58.164,162.67815 c 2.82726,-1.5911 4.65638,-4.50831 4.85872,-7.74909 l 3.6128,-59.600033 c 0.14533,-2.47928 -0.67614,-4.91817 -2.29218,-6.80214 -0.0655,-0.0766 -0.13159,-0.15056 -0.19901,-0.22454 -0.36724,-0.398 -0.76674,-0.76543 -1.19539,-1.09588 -0.0766,-0.0655 -0.14925,-0.11456 -0.22452,-0.17478 l -0.14926,-0.10209 c -0.20948,-0.15842 -0.42615,-0.30767 -0.64807,-0.44907 -0.18722,-0.10208 -0.37902,-0.20554 -0.57278,-0.29849 -0.0891,-0.0392 -0.18264,-0.0891 -0.27428,-0.12766 -0.19639,-0.10208 -0.39539,-0.18983 -0.59832,-0.27428 l -0.0766,-0.0263 c -0.13158,-0.0392 -0.26512,-0.0891 -0.398,-0.12766 l -46.21995,-17.04276 c -1.20304,-0.44121 -2.48255,-0.63629 -3.76238,-0.57278 z m -1.9339,9.41911 c 4.15069,-0.58391 8.2244,0.39539 9.09446,2.19263 0.8688,1.79442 -1.80424,3.72625 -5.95508,4.31049 -4.1507,0.58457 -8.20086,-0.398 -9.06959,-2.19256 -0.87004,-1.79684 1.77937,-3.72626 5.93021,-4.31056 z m -26.68554,7.52472 c 4.39447,-0.66077 8.69672,0.45822 9.61776,2.49163 0.91979,2.03147 -1.90938,4.22291 -6.30386,4.88368 -4.3946,0.66083 -8.69795,-0.4602 -9.61775,-2.49172 -0.92111,-2.03414 1.90937,-4.22277 6.30385,-4.88359 z m 53.62021,1.07165 c 4.63826,0.63563 7.59815,2.73169 6.62775,4.68415 -0.9721,1.95506 -5.50274,3.02718 -10.14099,2.39201 -4.6384,-0.63562 -7.62447,-2.75407 -6.65277,-4.70921 0.97086,-1.95237 5.52775,-3.00218 10.16601,-2.36695 z m -29.97451,0.29851 c 5.12588,-0.63563 10.13818,0.43597 11.21233,2.39195 1.07291,1.95251 -2.1995,4.04904 -7.32543,4.68434 -5.12589,0.63562 -10.16442,-0.4399 -11.23721,-2.39202 -1.07415,-1.95513 2.22451,-4.04898 7.35031,-4.68427 z m 1.84385,9.71739 c 3.74104,0.13419 6.86767,1.18131 7.6991,2.7658 1.10603,2.110413 -2.28625,4.371643 -7.57458,5.057933 -5.28843,0.68636 -10.48009,-0.45562 -11.58612,-2.56635 -1.10859,-2.113213 2.28623,-4.396633 7.57459,-5.082993 1.32205,-0.17086 2.63997,-0.2193 3.88701,-0.17478 z m -44.424,9.105523 c 1.86853,0.11456 4.11836,2.11905 5.70574,5.30721 2.1172,4.25098 2.2296,9.02534 0.24875,10.63927 -1.97778,1.61186 -5.28357,-0.5335 -7.40007,-4.78397 -2.11721,-4.25078 -2.22705,-9.00248 -0.24875,-10.61434 0.49489,-0.40324 1.0716,-0.58784 1.69447,-0.54855 z m 86.79214,4.69502 c 0.85605,-0.11456 1.69316,-0.0392 2.44177,0.32403 2.9904,1.44107 3.56449,6.44315 1.29574,11.16258 -2.26888,4.71923 -6.5276,7.37113 -9.51813,5.93006 -2.99451,-1.44308 -3.58937,-6.41828 -1.32055,-11.1377 1.70161,-3.53949 4.53202,-5.91893 7.10117,-6.27885 z m -65.88729,7.19006 c 2.02916,0.12764 4.50517,2.24323 6.22909,5.60629 2.29835,4.4839 2.42475,9.48501 0.27428,11.18746 -2.14784,1.70029 -5.77434,-0.54856 -8.07293,-5.03311 -2.29795,-4.48404 -2.42181,-9.51218 -0.27429,-11.21247 0.53678,-0.42614 1.16731,-0.59046 1.84385,-0.54856 z m 38.82805,4.09703 c 0.85597,-0.11456 1.69322,-0.0392 2.44182,0.32403 2.99041,1.44106 3.56437,6.44315 1.29561,11.1625 -2.26888,4.7193 -6.52746,7.37127 -9.51798,5.93021 -2.99453,-1.4431 -3.5645,-6.41841 -1.29569,-11.13765 1.70161,-3.53949 4.50701,-5.91913 7.07624,-6.27897 z m -57.2413,2.10718 c 1.7078,0.12766 3.78162,2.16043 5.2325,5.40691 1.93483,4.32862 2.0344,9.17027 0.22453,10.8138 -1.80771,1.6413 -4.84262,-0.52958 -6.77727,-4.85873 -1.93503,-4.32862 -2.03197,-9.17243 -0.22452,-10.8138 0.45299,-0.4111 0.97589,-0.58916 1.54476,-0.54857 z m 19.68399,13.38015 c 2.02916,0.12765 4.48015,2.24309 6.20421,5.60617 2.29834,4.48389 2.42475,9.48513 0.27427,11.18758 -2.14784,1.70029 -5.74945,-0.54856 -8.04799,-5.03325 -2.29796,-4.48402 -2.42187,-9.51203 -0.27428,-11.21233 0.53678,-0.42615 1.16724,-0.59045 1.84379,-0.54855 z m 64.0185,4.22153 c 0.85604,-0.11456 1.69329,-0.0131 2.4419,0.34957 2.9904,1.44106 3.56436,6.41826 1.29562,11.13763 -2.2689,4.7193 -6.52748,7.39601 -9.51801,5.95494 -2.99452,-1.44309 -3.5895,-6.44327 -1.32067,-11.16251 1.70172,-3.53948 4.532,-5.919 7.10116,-6.27898 z m -81.48494,0.76157 c 1.60079,0.10209 3.54859,1.85426 4.90847,4.6346 1.8138,3.70687 1.89597,7.86149 0.19901,9.26885 -1.69439,1.40558 -4.54039,-0.45431 -6.35373,-4.16104 -1.81274,-3.70682 -1.89366,-7.86353 -0.199,-9.26899 0.42485,-0.35218 0.9109,-0.50797 1.44512,-0.47328 z m 55.32278,11.57198 c 0.85596,-0.11455 1.69322,-0.0131 2.44183,0.34956 2.99039,1.441 3.58924,6.44315 1.32048,11.16252 -2.26889,4.7193 -6.55234,7.37112 -9.54287,5.93006 -2.99452,-1.44309 -3.56463,-6.44328 -1.2958,-11.16251 1.70173,-3.53962 4.50713,-5.91913 7.07636,-6.27897 z m -36.66037,2.10719 c 2.02916,0.12765 4.50511,2.24323 6.22909,5.60617 2.29834,4.4839 2.39987,9.48513 0.24876,11.18752 -2.14779,1.70028 -5.74941,-0.54857 -8.048,-5.03305 -2.29795,-4.48416 -2.42181,-9.4873 -0.2743,-11.18759 0.53745,-0.42615 1.16732,-0.61468 1.84379,-0.57279 z"
           id="path2434"
           inkscape:connector-curvature="0"
           sodipodi:nodetypes="ccccccccccccccccccccccccccccccccccccccccccccccccsccccccccccccccccccccccccccccccscccccccccccccsccccccccccccccccccccccccccccccccccsccccccccc" />
      </g>
    </g>
    <g
       aria-label="ELT"
       style="font-style:normal;font-variant:normal;font-weight:bold;font-stretch:normal;font-size:4.58611107px;line-height:1.25;font-family:'League Spartan';-inkscape-font-specification:'League Spartan Bold';letter-spacing:0px;word-spacing:0px;fill:#000000;fill-opacity:1;stroke:none;stroke-width:0.26458332"
       id="text4781"
       inkscape:path-effect="#path-effect4797"
       transform="matrix(0.99761987,0,0,0.99761987,-44.70642,236.46284)"
       inkscape:export-xdpi="146.56"
       inkscape:export-ydpi="146.56">
      <path
         d="m 78.015881,41.552981 c -0.255039,0.942622 -0.510077,1.885244 -0.765116,2.827866 0.16256,0 3.90144,0 4.064,0 -0.174098,0.643466 -0.348196,1.286933 -0.522294,1.9304 0,0 -4.064,0 -4.064,0 -0.27031,0.999066 -0.540621,1.998133 -0.810931,2.9972 1.631244,0 3.262489,0 4.893733,0 -0.180207,0.666044 -0.360414,1.332088 -0.54062,1.998133 2.537222,0 -10.208022,0 -7.670799,0 1.058333,-3.9116 2.116666,-7.8232 3.175,-11.734799 1.548221,0 6.122577,0 7.670799,0 -0.274635,0.6604 -0.54927,1.3208 -0.823905,1.9812 -1.535289,0 -3.070578,0 -4.605867,0 z"
         style="font-style:normal;font-variant:normal;font-weight:bold;font-stretch:normal;font-size:16.93333244px;font-family:'Fira Code';-inkscape-font-specification:'Fira Code Bold';stroke-width:0.26458332"
         id="path4790"
         inkscape:original-d="m 75.438864,41.592592 v 2.827866 h 4.064 v 1.9304 h -4.064 v 2.9972 h 4.893733 v 1.998133 H 72.661798 V 39.611392 h 7.670799 l -0.287866,1.9812 z"
         inkscape:connector-curvature="0" />
      <path
         d="m 82.753239,51.30658 c 1.058333,-3.9116 2.116666,-7.8232 3.175,-11.734799 0,0 2.777067,0 2.777067,0 -0.859801,3.177822 -1.719601,6.355644 -2.579402,9.533466 1.693333,0 3.386666,0 5.079999,0 0.144422,-0.366889 -1.010953,2.568221 -0.866531,2.201333 0,0 -7.586133,0 -7.586133,0 z"
         style="font-style:normal;font-variant:normal;font-weight:bold;font-stretch:normal;font-size:16.93333244px;font-family:'Fira Code';-inkscape-font-specification:'Fira Code Bold';stroke-width:0.26458332"
         id="path4792"
         inkscape:original-d="M 82.815183,51.346191 V 39.611392 h 2.777067 v 9.533466 h 5.079999 l -0.270933,2.201333 z"
         inkscape:connector-curvature="0" />
      <path
         d="m 100.38115,41.705381 c -0.865908,3.200399 -1.731817,6.400799 -2.597726,9.601199 0,0 -2.777067,0 -2.777067,0 0.865909,-3.2004 1.731818,-6.4008 2.597727,-9.601199 0,0 -3.301999,0 -3.301999,0 0.192424,-0.7112 0.384848,-1.4224 0.577273,-2.1336 3.166532,0 6.333062,0 9.499602,0 -0.0369,0.09276 -0.81133,2.040834 -0.84821,2.1336 -1.04986,0 -2.09973,0 -3.1496,0 z"
         style="font-style:normal;font-variant:normal;font-weight:bold;font-stretch:normal;font-size:16.93333244px;font-family:'Fira Code';-inkscape-font-specification:'Fira Code Bold';stroke-width:0.26458332"
         id="path4794"
         inkscape:original-d="m 97.845368,41.744992 v 9.601199 h -2.777067 v -9.601199 h -3.301999 v -2.1336 h 9.499598 l -0.27093,2.1336 z"
         inkscape:connector-curvature="0" />
    </g>
  </g>
</svg>
