<?xml version="1.0" encoding="UTF-8" standalone="no"?>
<svg
   xmlns:dc="http://purl.org/dc/elements/1.1/"
   xmlns:cc="http://creativecommons.org/ns#"
   xmlns:rdf="http://www.w3.org/1999/02/22-rdf-syntax-ns#"
   xmlns:svg="http://www.w3.org/2000/svg"
   xmlns="http://www.w3.org/2000/svg"
   xmlns:sodipodi="http://sodipodi.sourceforge.net/DTD/sodipodi-0.dtd"
   xmlns:inkscape="http://www.inkscape.org/namespaces/inkscape"
   version="1.1"
   id="Layer_1"
   x="0px"
   y="0px"
   viewBox="0 0 2741.9124 1047.3599"
   enable-background="new 0 0 2741.9124 1047.3599"
   xml:space="preserve"
   sodipodi:docname="Extra-Life-Tracker-Log.svg"
   inkscape:version="0.92.3 (2405546, 2018-03-11)"><metadata
   id="metadata48"><rdf:RDF><cc:Work
       rdf:about=""><dc:format>image/svg+xml</dc:format><dc:type
         rdf:resource="http://purl.org/dc/dcmitype/StillImage" /><dc:title></dc:title></cc:Work></rdf:RDF></metadata><defs
   id="defs46" /><sodipodi:namedview
   pagecolor="#ffffff"
   bordercolor="#666666"
   borderopacity="1"
   objecttolerance="10"
   gridtolerance="10"
   guidetolerance="10"
   inkscape:pageopacity="0"
   inkscape:pageshadow="2"
   inkscape:window-width="1366"
   inkscape:window-height="715"
   id="namedview44"
   showgrid="false"
   inkscape:zoom="0.22627417"
   inkscape:cx="742.81815"
   inkscape:cy="311.92599"
   inkscape:window-x="-8"
   inkscape:window-y="-8"
   inkscape:window-maximized="1"
   inkscape:current-layer="Layer_1" />
<g
   id="Fills">
</g>
<g
   id="g41">
	<path
   d="m 1370.9562,213.7053 c -216.8287,0 -393.232,176.4033 -393.232,393.232 0,216.8287 176.4033,393.232 393.232,393.232 216.8287,0 393.2321,-176.4033 393.2321,-393.232 0,-216.8287 -176.4034,-393.232 -393.2321,-393.232 z"
   id="path3"
   inkscape:connector-curvature="0"
   sodipodi:nodetypes="sssss" />
	<g
   id="g21">
		<path
   d="M1771.5063,783.4409l1.7126-26.9022l-11.6289,8.2807c-33.9205,24.1546-30.8086,52.8845,7.0825,65.3931v-0.0015    c15.9924,5.2795,16.9268,4.2551,8.2303-9.0166C1771.5084,812.9608,1770.2068,803.8535,1771.5063,783.4409z"
   id="path5" />
		<path
   d="M1817.0276,730.8345l-2.2482-31.3252l-13.4468,25.2939c-30.4597,57.295-18.5133,93.4948,35.0049,106.0684l0.0016-0.0026    c8.8912,2.0887,24.6543,3.9138,35.0284,4.052l18.8622,0.2559l-16.5275-8.2456    C1837.6603,808.9535,1820.5525,779.9434,1817.0276,730.8345z"
   id="path7" />
		<path
   d="M1847.2577,693.7272c-7.7478-15.5057-14.2209-24.0789-16.0026-21.1958c-5.6044,9.0667-6.9315,60.2277-2.0319,78.3371    c5.4575,20.1867,28.5522,48.1812,48.1282,58.347c7.0897,3.6818,21.3783,9.0497,31.7523,11.9289l0.0026-0.0021    c23.6949,6.5756,83.4774,6.7294,111.0775,0.2849l20.958-4.8929l-33.0652-7.2026    C1936.8951,793.8268,1875.0701,749.3834,1847.2577,693.7272z"
   id="path9" />
		<path
   d="M1801.2882,710.0905c7.04-10.1938,27.4951-50.4529,45.4537-89.4656c36.6233-79.5565,50.5964-103.2531,75.327-127.7389    c44.062-43.6305,87.7596-54.7627,293.0182-74.6484c38.0388-3.6853,85.1943-9.4373,104.7903-12.7822    c173.457-29.6096,270.0823-107.8543,305.7397-247.5731c8.2466-32.313,18.8965-105.7147,15.7888-108.8223    c-0.8735-0.8734-4.8657,10.1981-8.8704,24.6039c-17.0015,61.1513-63.6458,135.0703-106.9197,169.4289    c-71.2278,56.5531-148.0562,79.925-300.3828,91.3769c-188.0773,14.1395-234.5875,21.994-287.0497,48.476    c-59.3199,29.9491-89.1304,75.3398-131.3734,200.0736c-12.6975,37.4899-31.1632,83.7039-41.0339,102.6944    c-21.4486,41.2704-57.105,78.7611-93.5189,98.3392l0.0016-0.0005c-27.9967,15.0521-22.4454,17.4896,16.6399,7.3091    C1735.0862,779.3317,1771.795,752.7862,1801.2882,710.0905z"
   id="path11" />
		<path
   d="M2170.7842,763.9448c-58.0623-4.5059-96.6543-17.1896-190.4457-62.6057    c-47.6375-23.0657-97.6785-44.3197-112.3014-47.6965l-26.3751-6.0909l2.8112,9.1007    c19.8477,64.2534,78.7225,111.5404,163.1123,131.0046l-0.0015-0.0013c48.4255,11.169,143.7676,3.3424,188.6221-15.4837    C2207.9966,767.223,2206.4114,766.71,2170.7842,763.9448z"
   id="path13" />
		<path
   d="M2127.499,653.2392c-93.9551-30.45-123.113-37.9202-163.9255-42c-29.8359-2.9822-73.8232,4.4265-102.6942,17.2968    c-15.4274,6.8776-15.9297,7.5922-6.2875,8.9486c23.8459,3.3525,60.3967,15.8359,126.1254,43.0729    c81.4681,33.7609,125.4696,49.0068,163.0956,56.5154v0.0025c37.54,7.4905,93.1519,7.3572,125.748-0.3019    c29.8943-7.0229,78.7891-29.8627,98.5027-46.0112l12.5747-10.301l-12.9099,3.6777    C2311.6907,700.1013,2246.0547,691.659,2127.499,653.2392z"
   id="path15" />
		<path
   d="M2518.3491,528.9756c-28.1423,17.2886-76.1448,32.5892-120.9656,38.5598c-48.1072,6.4081-105.5947,3.297-236.8254-12.8163    c-144.33-17.7217-189.3141-16.2029-241.772,8.1635c-23.4219,10.8823-64.2152,42.8702-64.2152,50.3577    c0,1.6541,10.8459-0.6656,24.1018-5.1552c31.257-10.5867,94.7302-14.0475,139.7856-7.6221    c19.3694,2.7618,72.6823,12.6284,118.4799,21.9253c45.7976,9.2972,95.7808,18.3654,111.0776,20.1517l0.001-0.0023    c114.7031,13.3964,191.6821-12.6797,262.5073-88.9165c17.3093-18.6323,30.7341-34.6151,29.832-35.5169    C2539.4539,517.2023,2529.5508,522.0943,2518.3491,528.9756z"
   id="path17" />
		<path
   d="M2629.4138,280.6359c-52.2483,80.0889-123.5391,126.3969-227.8596,148.0096    c-24.6257,5.1024-73.9021,10.4297-119.4607,12.9164c-237.7015,12.9734-257.3727,15.5236-309.9985,40.1894    c-17.1891,8.0569-39.4297,21.3488-49.4232,29.5377c-16.3859,13.4258-47.1638,53.2669-47.1638,61.0508l0.0046,0.0038    c0,1.7096,11.641-4.4157,25.8691-13.6116c57.0144-36.8519,138.0756-49.8495,262.424-42.0797    c112.9297,7.0565,193.22,5.7809,239.8477-3.8112c112.4983-23.1417,188.6682-97.2199,236.2974-229.8213    c6.0532-16.8516,11.0056-31.7115,11.0056-33.0227S2641.262,262.4731,2629.4138,280.6359z"
   id="path19" />
	</g>
	<g
   id="g39">
		<path
   d="M970.406,783.4409l-1.7126-26.9022l11.6289,8.2807c33.9206,24.1546,30.8087,52.8845-7.0825,65.3931v-0.0015    c-15.9924,5.2795-16.9268,4.2551-8.2303-9.0166C970.4039,812.9608,971.7057,803.8535,970.406,783.4409z"
   id="path23" />
		<path
   d="M924.8848,730.8345l2.2482-31.3252l13.4467,25.2939c30.4597,57.295,18.5134,93.4948-35.0049,106.0684l-0.0015-0.0026    c-8.8913,2.0887-24.6544,3.9138-35.0284,4.052l-18.8622,0.2559l16.5275-8.2456    C904.2521,808.9535,921.3599,779.9434,924.8848,730.8345z"
   id="path25" />
		<path
   d="M894.6547,693.7272c7.7478-15.5057,14.2209-24.0789,16.0026-21.1958c5.6044,9.0667,6.9315,60.2277,2.0319,78.3371    c-5.4576,20.1867-28.5523,48.1812-48.1282,58.347c-7.0897,3.6818-21.3783,9.0497-31.7524,11.9289l-0.0026-0.0021    c-23.6949,6.5756-83.4774,6.7294-111.0775,0.2849l-20.958-4.8929l33.0652-7.2026    C805.0173,793.8268,866.8423,749.3834,894.6547,693.7272z"
   id="path27" />
		<path
   d="M940.6242,710.0905c-7.04-10.1938-27.4951-50.4529-45.4537-89.4656c-36.6234-79.5565-50.5965-103.2531-75.3271-127.7389    c-44.062-43.6305-87.7596-54.7627-293.0182-74.6484c-38.0386-3.6853-85.1941-9.4373-104.7901-12.7822    c-173.4572-29.6096-270.0822-107.8543-305.7399-247.5731c-8.2466-32.313-18.8965-105.7147-15.7887-108.8223    c0.8734-0.8734,4.8656,10.1981,8.8703,24.6039c17.0014,61.1513,63.6458,135.0703,106.9196,169.4289    c71.2278,56.5531,148.0561,79.925,300.3828,91.3769c188.0773,14.1395,234.5876,21.994,287.0497,48.476    c59.3199,29.9491,89.1304,75.3398,131.3734,200.0736c12.6976,37.4899,31.1633,83.7039,41.0339,102.6944    c21.4487,41.2704,57.105,78.7611,93.5189,98.3392l-0.0015-0.0005c27.9966,15.0521,22.4454,17.4896-16.64,7.3091    C1006.8262,779.3317,970.1174,752.7862,940.6242,710.0905z"
   id="path29" />
		<path
   d="M571.1281,763.9448c58.0623-4.5059,96.6545-17.1896,190.4458-62.6057c47.6375-23.0657,97.6785-44.3197,112.3013-47.6965    l26.3751-6.0909l-2.8111,9.1007c-19.8477,64.2534-78.7225,111.5404-163.1124,131.0046l0.0015-0.0013    c-48.4255,11.169-143.7675,3.3424-188.6221-15.4837C533.9159,767.223,535.501,766.71,571.1281,763.9448z"
   id="path31" />
		<path
   d="M614.4134,653.2392c93.955-30.45,123.113-37.9202,163.9255-42c29.836-2.9822,73.8233,4.4265,102.6942,17.2968    c15.4274,6.8776,15.9297,7.5922,6.2875,8.9486c-23.8459,3.3525-60.3967,15.8359-126.1253,43.0729    c-81.4681,33.7609-125.4697,49.0068-163.0955,56.5154v0.0025c-37.5402,7.4905-93.152,7.3572-125.748-0.3019    c-29.8944-7.0229-78.7891-29.8627-98.5027-46.0112l-12.5749-10.301l12.91,3.6777    C430.2218,700.1013,495.8578,691.659,614.4134,653.2392z"
   id="path33" />
		<path
   d="M223.5632,528.9756c28.1423,17.2886,76.1448,32.5892,120.9655,38.5598c48.1073,6.4081,105.5949,3.297,236.8257-12.8163    c144.3298-17.7217,189.314-16.2029,241.7719,8.1635c23.4219,10.8823,64.2153,42.8702,64.2153,50.3577    c0,1.6541-10.8459-0.6656-24.1018-5.1552c-31.257-10.5867-94.7302-14.0475-139.7857-7.6221    c-19.3694,2.7618-72.6823,12.6284-118.4799,21.9253c-45.7975,9.2972-95.7806,18.3654-111.0775,20.1517l-0.001-0.0023    c-114.7032,13.3964-191.6821-12.6797-262.5073-88.9165c-17.3094-18.6323-30.7342-34.6151-29.8322-35.5169    C202.4585,517.2023,212.3617,522.0943,223.5632,528.9756z"
   id="path35" />
		<path
   d="M112.4986,280.6359c52.2482,80.0889,123.5391,126.3969,227.8596,148.0096    c24.6257,5.1024,73.9022,10.4297,119.4607,12.9164c237.7016,12.9734,257.3727,15.5236,309.9986,40.1894    c17.189,8.0569,39.4297,21.3488,49.4232,29.5377c16.3859,13.4258,47.1638,53.2669,47.1638,61.0508l-0.0046,0.0038    c0,1.7096-11.6411-4.4157-25.8691-13.6116c-57.0144-36.8519-138.0756-49.8495-262.424-42.0797    c-112.9297,7.0565-193.2201,5.7809-239.8476-3.8112c-112.4984-23.1417-188.6682-97.2199-236.2975-229.8213    c-6.0532-16.8516-11.0055-31.7115-11.0055-33.0227S100.6503,262.4731,112.4986,280.6359z"
   id="path37" />
	</g>
</g>
<g
   id="g3789"
   transform="matrix(1.4187894,0,0,1.4187894,1232.3009,1685.339)"
   style="fill:#aaaaaa"><path
     id="path3777"
     d="m 85.511,-1010.2 c -82.584,4.1917 -154.6,48.523 -196.98,113.89 l 85.781,49.607 c 24.978,-35.605 65.228,-59.679 111.23,-62.677 v -100.82 c -0.01043,5e-4 -0.02094,-6e-4 -0.03137,0 z"
     inkscape:connector-curvature="0"><animate
       begin="0s; p6.end"
       fill="freeze"
       dur="0.08s"
       to="#aaa"
       from="#333"
       attributeType="XML"
       attributeName="fill"
       id="p1" /></path><path
     id="path3779"
     d="m 111.14,-1010.2 v 101.35 c 44.506,4.7575 83.092,29.309 106.83,64.687 l 90.205,-52.152 c -42.394,-65.388 -114.42,-109.72 -197.04,-113.89 z"
     inkscape:connector-curvature="0"
     style="fill:#008000"><animate
       begin="p1.end"
       fill="freeze"
       dur="0.1s"
       to="#aaa"
       from="#333"
       attributeType="XML"
       attributeName="fill"
       id="p2" /></path><path
     id="path3781"
     d="m -124.33,-874.18 c -17.473,34.173 -27.297,72.92 -27.297,113.95 0,41.029 9.8236,79.745 27.297,113.92 l 86.973,-50.298 c -9.6635,-19.671 -15.092,-41.818 -15.092,-65.221 0,-22.43 4.9773,-43.692 13.899,-62.74 l -85.781,-49.607 z"
     inkscape:connector-curvature="0"
     style="fill:#008000"><animate
       begin="p5.end"
       fill="freeze"
       dur="0.2s"
       to="#aaa"
       from="#333"
       attributeType="XML"
       attributeName="fill"
       id="p6" /></path><path
     id="path3783"
     d="m 321.05,-874.18 -90.675,52.403 c 8.12,18.323 12.644,38.606 12.644,59.943 0,22.317 -4.9677,43.483 -13.805,62.457 l 91.805,53.063 c 17.477,-34.176 27.359,-72.884 27.359,-113.92 0,-41.029 -9.855,-79.776 -27.328,-113.95 z"
     inkscape:connector-curvature="0"
     style="fill:#008000"><animate
       begin="p2.end"
       fill="freeze"
       dur="0.2s"
       to="#aaa"
       from="#333"
       attributeType="XML"
       attributeName="fill"
       id="p3" /></path><path
     id="path3785"
     d="m 216.44,-677.17 c -23.852,34.163 -61.743,57.738 -105.3,62.394 v 104.52 c 82.625,-4.1631 154.64,-48.496 197.04,-113.89 l -91.742,-53.032 z"
     inkscape:connector-curvature="0"
     style="fill:#008000"><animate
       begin="p3.end"
       fill="freeze"
       dur="0.08s"
       to="#aaa"
       from="#333"
       attributeType="XML"
       attributeName="fill"
       id="p4" /></path><path
     id="path3787"
     d="m -24.084,-674.65 -87.381,50.518 c 42.379,65.37 114.4,109.7 197,113.88 v -103.99 c -45.02,-2.9339 -84.548,-26.05 -109.63,-60.415 z"
     inkscape:connector-curvature="0"
     style="fill:#008000"><animate
       begin="p4.end"
       fill="freeze"
       dur="0.1s"
       to="#aaa"
       from="#333"
       attributeType="XML"
       attributeName="fill"
       id="p5" /></path></g></svg>